<svg width="32" height="33" viewBox="0 0 32 33" fill="none" xmlns="http://www.w3.org/2000/svg">
<path d="M15.6992 29.4274C8.48737 29.4274 2.64099 23.581 2.64099 16.3692C2.64099 9.15729 8.48737 3.31091 15.6992 3.31091C22.9111 3.31091 28.7575 9.15729 28.7575 16.3692C28.7496 23.5778 22.9078 29.4195 15.6992 29.4274ZM15.6992 5.92256C9.92974 5.92256 5.25264 10.5997 5.25264 16.3692C5.25264 22.1387 9.92974 26.8158 15.6992 26.8158C21.4687 26.8158 26.1458 22.1387 26.1458 16.3692C26.1394 10.6024 21.4661 5.92904 15.6992 5.92256ZM22.2284 17.675H14.3934V9.84004H17.0051V15.0633H22.2284V17.675Z" fill="#828282"/>
</svg>
