<svg width="25" height="24" viewBox="0 0 25 24" fill="none" xmlns="http://www.w3.org/2000/svg">
<path d="M19.9237 14.8264C19.6152 15.1254 19.4734 15.5578 19.5437 15.9819L20.6027 21.843C20.6921 22.3397 20.4824 22.8424 20.0667 23.1295C19.6593 23.4274 19.1172 23.4631 18.6729 23.2248L13.3967 20.473C13.2133 20.3753 13.0096 20.3229 12.8011 20.3169H12.4782C12.3663 20.3336 12.2567 20.3694 12.1566 20.4242L6.87926 23.1891C6.61837 23.3201 6.32293 23.3666 6.03345 23.3201C5.32822 23.1867 4.85766 22.5148 4.97322 21.806L6.03345 15.945C6.10374 15.5173 5.96198 15.0825 5.65344 14.7787L1.35174 10.6092C0.991977 10.2602 0.866894 9.73604 1.03129 9.2631C1.19092 8.79135 1.59834 8.44708 2.09033 8.36964L8.01097 7.51073C8.46127 7.46427 8.85677 7.19028 9.05929 6.78525L11.6682 1.43642C11.7301 1.3173 11.8099 1.2077 11.9064 1.11478L12.0137 1.03139C12.0696 0.969443 12.134 0.918218 12.2054 0.876524L12.3353 0.828873L12.5378 0.745483H13.0393C13.4873 0.791943 13.8816 1.05998 14.0877 1.46025L16.7311 6.78525C16.9217 7.17479 17.2922 7.44521 17.7199 7.51073L23.6405 8.36964C24.1408 8.44112 24.559 8.78659 24.7246 9.2631C24.8806 9.7408 24.746 10.265 24.3791 10.6092L19.9237 14.8264Z" fill="#FF6905" fill-opacity="0.2"/>
</svg>
