<svg width="25" height="24" viewBox="0 0 25 24" fill="none" xmlns="http://www.w3.org/2000/svg">
<path d="M19.8231 14.8264C19.5146 15.1254 19.3728 15.5578 19.4431 15.9819L20.5022 21.843C20.5915 22.3397 20.3818 22.8424 19.9661 23.1295C19.5587 23.4274 19.0166 23.4631 18.5723 23.2248L13.2961 20.473C13.1127 20.3753 12.909 20.3229 12.7005 20.3169H12.3777C12.2657 20.3336 12.1561 20.3694 12.056 20.4242L6.77867 23.1891C6.51778 23.3201 6.22235 23.3666 5.93287 23.3201C5.22763 23.1867 4.75708 22.5148 4.87263 21.806L5.93287 15.945C6.00315 15.5173 5.86139 15.0825 5.55285 14.7787L1.25116 10.6092C0.891391 10.2602 0.766308 9.73604 0.930704 9.2631C1.09033 8.79135 1.49775 8.44708 1.98975 8.36964L7.91038 7.51073C8.36068 7.46427 8.75619 7.19028 8.9587 6.78525L11.5676 1.43642C11.6295 1.3173 11.7094 1.2077 11.8059 1.11478L11.9131 1.03139C11.9691 0.969443 12.0334 0.918218 12.1049 0.876524L12.2347 0.828873L12.4372 0.745483H12.9388C13.3867 0.791943 13.781 1.05998 13.9871 1.46025L16.6305 6.78525C16.8211 7.17479 17.1916 7.44521 17.6193 7.51073L23.5399 8.36964C24.0402 8.44112 24.4584 8.78659 24.624 9.2631C24.78 9.7408 24.6454 10.265 24.2785 10.6092L19.8231 14.8264Z" fill="#FF6905"/>
</svg>
